<mxfile host="app.diagrams.net" modified="2020-12-12T11:11:45.121Z" agent="5.0 (Windows NT 10.0; Win64; x64) AppleWebKit/537.36 (KHTML, like Gecko) Chrome/87.0.4280.88 Safari/537.36 Edg/87.0.664.57" etag="HTZJx_wSvpm7Pkdh6qSp" version="14.0.0" type="github">
  <diagram id="C5RBs43oDa-KdzZeNtuy" name="Page-1">
    <mxGraphModel dx="1635" dy="913" grid="1" gridSize="10" guides="1" tooltips="1" connect="1" arrows="1" fold="1" page="1" pageScale="1" pageWidth="1169" pageHeight="827" math="0" shadow="0">
      <root>
        <mxCell id="WIyWlLk6GJQsqaUBKTNV-0" />
        <mxCell id="WIyWlLk6GJQsqaUBKTNV-1" parent="WIyWlLk6GJQsqaUBKTNV-0" />
        <mxCell id="vfxE1XWkJNAnzS6LpCng-8" style="edgeStyle=orthogonalEdgeStyle;rounded=0;orthogonalLoop=1;jettySize=auto;html=1;exitX=0.25;exitY=1;exitDx=0;exitDy=0;entryX=1;entryY=0.5;entryDx=0;entryDy=0;endArrow=none;endFill=0;dashed=1;" parent="WIyWlLk6GJQsqaUBKTNV-1" source="i8ZYzH3QJLQe-S7LLOKw-4" target="JluxLL0T92C3vlwOhnVZ-6" edge="1">
          <mxGeometry relative="1" as="geometry" />
        </mxCell>
        <mxCell id="i8ZYzH3QJLQe-S7LLOKw-4" value="&lt;&lt;control&gt;&gt;&#xa;BookRoomController" style="swimlane;fontStyle=1;align=center;verticalAlign=top;childLayout=stackLayout;horizontal=1;startSize=40;horizontalStack=0;resizeParent=1;resizeParentMax=0;resizeLast=0;collapsible=1;marginBottom=0;" parent="WIyWlLk6GJQsqaUBKTNV-1" vertex="1">
          <mxGeometry x="505" y="60" width="160" height="100" as="geometry" />
        </mxCell>
        <mxCell id="i8ZYzH3QJLQe-S7LLOKw-5" value="+ field: type" style="text;strokeColor=none;fillColor=none;align=left;verticalAlign=top;spacingLeft=4;spacingRight=4;overflow=hidden;rotatable=0;points=[[0,0.5],[1,0.5]];portConstraint=eastwest;" parent="i8ZYzH3QJLQe-S7LLOKw-4" vertex="1">
          <mxGeometry y="40" width="160" height="26" as="geometry" />
        </mxCell>
        <mxCell id="i8ZYzH3QJLQe-S7LLOKw-6" value="" style="line;strokeWidth=1;fillColor=none;align=left;verticalAlign=middle;spacingTop=-1;spacingLeft=3;spacingRight=3;rotatable=0;labelPosition=right;points=[];portConstraint=eastwest;" parent="i8ZYzH3QJLQe-S7LLOKw-4" vertex="1">
          <mxGeometry y="66" width="160" height="8" as="geometry" />
        </mxCell>
        <mxCell id="i8ZYzH3QJLQe-S7LLOKw-7" value="+ method(type): type" style="text;strokeColor=none;fillColor=none;align=left;verticalAlign=top;spacingLeft=4;spacingRight=4;overflow=hidden;rotatable=0;points=[[0,0.5],[1,0.5]];portConstraint=eastwest;" parent="i8ZYzH3QJLQe-S7LLOKw-4" vertex="1">
          <mxGeometry y="74" width="160" height="26" as="geometry" />
        </mxCell>
        <mxCell id="i8ZYzH3QJLQe-S7LLOKw-8" value="&lt;&lt;boundary&gt;&gt;&#xa;GuestBookRoomBoundary" style="swimlane;fontStyle=1;align=center;verticalAlign=top;childLayout=stackLayout;horizontal=1;startSize=40;horizontalStack=0;resizeParent=1;resizeParentMax=0;resizeLast=0;collapsible=1;marginBottom=0;" parent="WIyWlLk6GJQsqaUBKTNV-1" vertex="1">
          <mxGeometry x="120" y="60" width="160" height="100" as="geometry" />
        </mxCell>
        <mxCell id="i8ZYzH3QJLQe-S7LLOKw-9" value="+ field: type" style="text;strokeColor=none;fillColor=none;align=left;verticalAlign=top;spacingLeft=4;spacingRight=4;overflow=hidden;rotatable=0;points=[[0,0.5],[1,0.5]];portConstraint=eastwest;" parent="i8ZYzH3QJLQe-S7LLOKw-8" vertex="1">
          <mxGeometry y="40" width="160" height="26" as="geometry" />
        </mxCell>
        <mxCell id="i8ZYzH3QJLQe-S7LLOKw-10" value="" style="line;strokeWidth=1;fillColor=none;align=left;verticalAlign=middle;spacingTop=-1;spacingLeft=3;spacingRight=3;rotatable=0;labelPosition=right;points=[];portConstraint=eastwest;" parent="i8ZYzH3QJLQe-S7LLOKw-8" vertex="1">
          <mxGeometry y="66" width="160" height="8" as="geometry" />
        </mxCell>
        <mxCell id="i8ZYzH3QJLQe-S7LLOKw-11" value="+ method(type): type" style="text;strokeColor=none;fillColor=none;align=left;verticalAlign=top;spacingLeft=4;spacingRight=4;overflow=hidden;rotatable=0;points=[[0,0.5],[1,0.5]];portConstraint=eastwest;" parent="i8ZYzH3QJLQe-S7LLOKw-8" vertex="1">
          <mxGeometry y="74" width="160" height="26" as="geometry" />
        </mxCell>
        <mxCell id="i8ZYzH3QJLQe-S7LLOKw-12" value="Guest" style="shape=umlActor;verticalLabelPosition=bottom;verticalAlign=top;html=1;outlineConnect=0;" parent="WIyWlLk6GJQsqaUBKTNV-1" vertex="1">
          <mxGeometry x="60" y="80" width="30" height="60" as="geometry" />
        </mxCell>
        <mxCell id="i8ZYzH3QJLQe-S7LLOKw-19" style="edgeStyle=orthogonalEdgeStyle;rounded=0;orthogonalLoop=1;jettySize=auto;html=1;exitX=1;exitY=0.5;exitDx=0;exitDy=0;entryX=0;entryY=0.5;entryDx=0;entryDy=0;endArrow=none;endFill=0;" parent="WIyWlLk6GJQsqaUBKTNV-1" source="i8ZYzH3QJLQe-S7LLOKw-9" target="i8ZYzH3QJLQe-S7LLOKw-5" edge="1">
          <mxGeometry relative="1" as="geometry" />
        </mxCell>
        <mxCell id="JluxLL0T92C3vlwOhnVZ-0" value="&lt;&lt;boundary&gt;&gt;&#xa;HostBookRoomBoundary" style="swimlane;fontStyle=1;align=center;verticalAlign=top;childLayout=stackLayout;horizontal=1;startSize=40;horizontalStack=0;resizeParent=1;resizeParentMax=0;resizeLast=0;collapsible=1;marginBottom=0;" parent="WIyWlLk6GJQsqaUBKTNV-1" vertex="1">
          <mxGeometry x="850" y="60" width="200" height="100" as="geometry" />
        </mxCell>
        <mxCell id="JluxLL0T92C3vlwOhnVZ-1" value="+ field: type" style="text;strokeColor=none;fillColor=none;align=left;verticalAlign=top;spacingLeft=4;spacingRight=4;overflow=hidden;rotatable=0;points=[[0,0.5],[1,0.5]];portConstraint=eastwest;" parent="JluxLL0T92C3vlwOhnVZ-0" vertex="1">
          <mxGeometry y="40" width="200" height="26" as="geometry" />
        </mxCell>
        <mxCell id="JluxLL0T92C3vlwOhnVZ-2" value="" style="line;strokeWidth=1;fillColor=none;align=left;verticalAlign=middle;spacingTop=-1;spacingLeft=3;spacingRight=3;rotatable=0;labelPosition=right;points=[];portConstraint=eastwest;" parent="JluxLL0T92C3vlwOhnVZ-0" vertex="1">
          <mxGeometry y="66" width="200" height="8" as="geometry" />
        </mxCell>
        <mxCell id="JluxLL0T92C3vlwOhnVZ-3" value="+ method(type): type" style="text;strokeColor=none;fillColor=none;align=left;verticalAlign=top;spacingLeft=4;spacingRight=4;overflow=hidden;rotatable=0;points=[[0,0.5],[1,0.5]];portConstraint=eastwest;" parent="JluxLL0T92C3vlwOhnVZ-0" vertex="1">
          <mxGeometry y="74" width="200" height="26" as="geometry" />
        </mxCell>
        <mxCell id="JluxLL0T92C3vlwOhnVZ-5" value="Host" style="shape=umlActor;verticalLabelPosition=bottom;verticalAlign=top;html=1;outlineConnect=0;" parent="WIyWlLk6GJQsqaUBKTNV-1" vertex="1">
          <mxGeometry x="1080" y="80" width="30" height="60" as="geometry" />
        </mxCell>
        <mxCell id="JluxLL0T92C3vlwOhnVZ-15" style="edgeStyle=orthogonalEdgeStyle;rounded=0;orthogonalLoop=1;jettySize=auto;html=1;exitX=0.5;exitY=0;exitDx=0;exitDy=0;dashed=1;endArrow=none;endFill=0;" parent="WIyWlLk6GJQsqaUBKTNV-1" source="JluxLL0T92C3vlwOhnVZ-6" target="i8ZYzH3QJLQe-S7LLOKw-8" edge="1">
          <mxGeometry relative="1" as="geometry" />
        </mxCell>
        <mxCell id="JluxLL0T92C3vlwOhnVZ-6" value="RoomBean" style="swimlane;fontStyle=1;align=center;verticalAlign=top;childLayout=stackLayout;horizontal=1;startSize=26;horizontalStack=0;resizeParent=1;resizeParentMax=0;resizeLast=0;collapsible=1;marginBottom=0;" parent="WIyWlLk6GJQsqaUBKTNV-1" vertex="1">
          <mxGeometry x="120" y="220" width="160" height="34" as="geometry" />
        </mxCell>
        <mxCell id="JluxLL0T92C3vlwOhnVZ-8" value="" style="line;strokeWidth=1;fillColor=none;align=left;verticalAlign=middle;spacingTop=-1;spacingLeft=3;spacingRight=3;rotatable=0;labelPosition=right;points=[];portConstraint=eastwest;" parent="JluxLL0T92C3vlwOhnVZ-6" vertex="1">
          <mxGeometry y="26" width="160" height="8" as="geometry" />
        </mxCell>
        <mxCell id="Ayp9Abv5QdkdxpY9boeX-0" value="&lt;font style=&quot;font-size: 30px&quot;&gt;View Details?&lt;/font&gt;" style="text;html=1;align=center;verticalAlign=middle;resizable=0;points=[];autosize=1;" parent="WIyWlLk6GJQsqaUBKTNV-1" vertex="1">
          <mxGeometry x="665" y="205" width="200" height="30" as="geometry" />
        </mxCell>
        <mxCell id="vfxE1XWkJNAnzS6LpCng-6" style="edgeStyle=orthogonalEdgeStyle;rounded=0;orthogonalLoop=1;jettySize=auto;html=1;entryX=0.5;entryY=1;entryDx=0;entryDy=0;dashed=1;endArrow=none;endFill=0;" parent="WIyWlLk6GJQsqaUBKTNV-1" source="vfxE1XWkJNAnzS6LpCng-0" target="JluxLL0T92C3vlwOhnVZ-6" edge="1">
          <mxGeometry relative="1" as="geometry" />
        </mxCell>
        <mxCell id="vfxE1XWkJNAnzS6LpCng-7" style="edgeStyle=orthogonalEdgeStyle;rounded=0;orthogonalLoop=1;jettySize=auto;html=1;exitX=0.75;exitY=0;exitDx=0;exitDy=0;endArrow=none;endFill=0;entryX=0.498;entryY=0.973;entryDx=0;entryDy=0;entryPerimeter=0;" parent="WIyWlLk6GJQsqaUBKTNV-1" source="vfxE1XWkJNAnzS6LpCng-0" target="i8ZYzH3QJLQe-S7LLOKw-7" edge="1">
          <mxGeometry relative="1" as="geometry">
            <mxPoint x="585" y="210" as="targetPoint" />
            <Array as="points">
              <mxPoint x="278" y="280" />
              <mxPoint x="585" y="280" />
            </Array>
          </mxGeometry>
        </mxCell>
        <mxCell id="vfxE1XWkJNAnzS6LpCng-0" value="&lt;&lt;entity&gt;&gt;&#xa;Room" style="swimlane;fontStyle=1;align=center;verticalAlign=top;childLayout=stackLayout;horizontal=1;startSize=40;horizontalStack=0;resizeParent=1;resizeParentMax=0;resizeLast=0;collapsible=1;marginBottom=0;" parent="WIyWlLk6GJQsqaUBKTNV-1" vertex="1">
          <mxGeometry x="45" y="310" width="310" height="500" as="geometry" />
        </mxCell>
        <mxCell id="vfxE1XWkJNAnzS6LpCng-1" value="- ID: Integer&#xa;- name: String&#xa;- description: String&#xa;- address: String&#xa;- numPartecipants: Integer&#xa;- numAvailableSeats: Integer&#xa;- filters: ArrayList&lt;Boolean&gt;&#xa;- date: DateTime&#xa;- startTime: Time?&#xa;- endTime: Time?" style="text;strokeColor=none;fillColor=none;align=left;verticalAlign=top;spacingLeft=4;spacingRight=4;overflow=hidden;rotatable=0;points=[[0,0.5],[1,0.5]];portConstraint=eastwest;" parent="vfxE1XWkJNAnzS6LpCng-0" vertex="1">
          <mxGeometry y="40" width="310" height="150" as="geometry" />
        </mxCell>
        <mxCell id="vfxE1XWkJNAnzS6LpCng-2" value="" style="line;strokeWidth=1;fillColor=none;align=left;verticalAlign=middle;spacingTop=-1;spacingLeft=3;spacingRight=3;rotatable=0;labelPosition=right;points=[];portConstraint=eastwest;" parent="vfxE1XWkJNAnzS6LpCng-0" vertex="1">
          <mxGeometry y="190" width="310" height="8" as="geometry" />
        </mxCell>
        <mxCell id="vfxE1XWkJNAnzS6LpCng-3" value="+ isAvailable (numPart): Boolean&#xa;+ setID(Integer): void &#xa;+ getID(): Integer&#xa;+ setName(String): void&#xa;+ getName(): String&#xa;+ setDescription(String): void&#xa;+ getDescription(): String&#xa;+ setAddress(String): void&#xa;+ getAddress(): String&#xa;+ setNumPartecipants(Integer): void&#xa;+ getNumPartecipants(): Integer&#xa;+ setNumAvailableSeats(Integer): void&#xa;+ getNumAvailableSeats(): Integer&#xa;+ setFilters(ArrayList&lt;Boolean&gt;): void&#xa;+ getFilters(): ArrayList&lt;Boolean&gt;&#xa;+ setDate(DateTime): void&#xa;+ getDate(): DateTime&#xa;+ setStartTime(?): void&#xa;+ getStartTime(): ?&#xa;+ setEndTime(?): void&#xa;+ getEndTime(): ?&#xa; &#xa;&#xa; " style="text;strokeColor=none;fillColor=none;align=left;verticalAlign=top;spacingLeft=4;spacingRight=4;overflow=hidden;rotatable=0;points=[[0,0.5],[1,0.5]];portConstraint=eastwest;" parent="vfxE1XWkJNAnzS6LpCng-0" vertex="1">
          <mxGeometry y="198" width="310" height="302" as="geometry" />
        </mxCell>
        <mxCell id="vfxE1XWkJNAnzS6LpCng-9" style="edgeStyle=orthogonalEdgeStyle;rounded=0;orthogonalLoop=1;jettySize=auto;html=1;exitX=1;exitY=0.5;exitDx=0;exitDy=0;entryX=0;entryY=0.5;entryDx=0;entryDy=0;endArrow=none;endFill=0;" parent="WIyWlLk6GJQsqaUBKTNV-1" source="i8ZYzH3QJLQe-S7LLOKw-5" target="JluxLL0T92C3vlwOhnVZ-1" edge="1">
          <mxGeometry relative="1" as="geometry" />
        </mxCell>
        <mxCell id="vfxE1XWkJNAnzS6LpCng-18" style="edgeStyle=orthogonalEdgeStyle;rounded=0;orthogonalLoop=1;jettySize=auto;html=1;endArrow=none;endFill=0;entryX=1.005;entryY=0.172;entryDx=0;entryDy=0;entryPerimeter=0;" parent="WIyWlLk6GJQsqaUBKTNV-1" source="vfxE1XWkJNAnzS6LpCng-10" target="vfxE1XWkJNAnzS6LpCng-3" edge="1">
          <mxGeometry relative="1" as="geometry">
            <mxPoint x="370" y="560" as="targetPoint" />
          </mxGeometry>
        </mxCell>
        <mxCell id="vfxE1XWkJNAnzS6LpCng-10" value="&lt;&lt;entity&gt;&gt;&#xa;Reservation" style="swimlane;fontStyle=1;align=center;verticalAlign=top;childLayout=stackLayout;horizontal=1;startSize=40;horizontalStack=0;resizeParent=1;resizeParentMax=0;resizeLast=0;collapsible=1;marginBottom=0;" parent="WIyWlLk6GJQsqaUBKTNV-1" vertex="1">
          <mxGeometry x="475" y="356" width="220" height="408" as="geometry" />
        </mxCell>
        <mxCell id="vfxE1XWkJNAnzS6LpCng-11" value="- ID: Integer&#xa;- date: DateTime&#xa;- startTime: Time?&#xa;- endTime: Time?&#xa;- reservingUser: Account&#xa;- room: Room&#xa;- partecipants: ArrayList&lt;Person&gt;&#xa;- isGroup: Boolean" style="text;strokeColor=none;fillColor=none;align=left;verticalAlign=top;spacingLeft=4;spacingRight=4;overflow=hidden;rotatable=0;points=[[0,0.5],[1,0.5]];portConstraint=eastwest;" parent="vfxE1XWkJNAnzS6LpCng-10" vertex="1">
          <mxGeometry y="40" width="220" height="120" as="geometry" />
        </mxCell>
        <mxCell id="vfxE1XWkJNAnzS6LpCng-12" value="" style="line;strokeWidth=1;fillColor=none;align=left;verticalAlign=middle;spacingTop=-1;spacingLeft=3;spacingRight=3;rotatable=0;labelPosition=right;points=[];portConstraint=eastwest;" parent="vfxE1XWkJNAnzS6LpCng-10" vertex="1">
          <mxGeometry y="160" width="220" height="8" as="geometry" />
        </mxCell>
        <mxCell id="vfxE1XWkJNAnzS6LpCng-13" value="+ setID(Integer): void &#xa;+ getID(): Integer&#xa;+ setDate(DateTime): void&#xa;+ getDate(): DateTime&#xa;+ setStartTime(?): void&#xa;+ getStartTime(): ?&#xa;+ setEndTime(?): void&#xa;+ getEndTime(): ?&#xa;+ setReservingUser(Account): void&#xa;+ getReservingUser(): Account&#xa;+ setRoom(Room): void&#xa;+ getRoom(): Room&#xa;+ setPartecipants(Person): void&#xa;+ getPartecipants(): ArrayList&lt;Person&gt;&#xa;+ setIsGroup(Boolean): void&#xa;+ getIsGroup(): Boolean" style="text;strokeColor=none;fillColor=none;align=left;verticalAlign=top;spacingLeft=4;spacingRight=4;overflow=hidden;rotatable=0;points=[[0,0.5],[1,0.5]];portConstraint=eastwest;" parent="vfxE1XWkJNAnzS6LpCng-10" vertex="1">
          <mxGeometry y="168" width="220" height="240" as="geometry" />
        </mxCell>
        <mxCell id="vfxE1XWkJNAnzS6LpCng-19" style="edgeStyle=orthogonalEdgeStyle;rounded=0;orthogonalLoop=1;jettySize=auto;html=1;entryX=0.998;entryY=0.091;entryDx=0;entryDy=0;entryPerimeter=0;endArrow=none;endFill=0;" parent="WIyWlLk6GJQsqaUBKTNV-1" source="vfxE1XWkJNAnzS6LpCng-14" target="vfxE1XWkJNAnzS6LpCng-13" edge="1">
          <mxGeometry relative="1" as="geometry">
            <Array as="points">
              <mxPoint x="773" y="546" />
            </Array>
          </mxGeometry>
        </mxCell>
        <mxCell id="vfxE1XWkJNAnzS6LpCng-14" value="&lt;&lt;entity&gt;&gt;&#xa;Person" style="swimlane;fontStyle=1;align=center;verticalAlign=top;childLayout=stackLayout;horizontal=1;startSize=40;horizontalStack=0;resizeParent=1;resizeParentMax=0;resizeLast=0;collapsible=1;marginBottom=0;" parent="WIyWlLk6GJQsqaUBKTNV-1" vertex="1">
          <mxGeometry x="850" y="356" width="200" height="380" as="geometry" />
        </mxCell>
        <mxCell id="vfxE1XWkJNAnzS6LpCng-15" value="- ID: Integer&#xa;- username: String&#xa;- studyGrade: String&#xa;- school: String&#xa;- account: Account&#xa;- hostRating: Float&#xa;- guestRating: Float&#xa;- reviews: ArrayList&lt;Review&gt;" style="text;strokeColor=none;fillColor=none;align=left;verticalAlign=top;spacingLeft=4;spacingRight=4;overflow=hidden;rotatable=0;points=[[0,0.5],[1,0.5]];portConstraint=eastwest;" parent="vfxE1XWkJNAnzS6LpCng-14" vertex="1">
          <mxGeometry y="40" width="200" height="120" as="geometry" />
        </mxCell>
        <mxCell id="vfxE1XWkJNAnzS6LpCng-16" value="" style="line;strokeWidth=1;fillColor=none;align=left;verticalAlign=middle;spacingTop=-1;spacingLeft=3;spacingRight=3;rotatable=0;labelPosition=right;points=[];portConstraint=eastwest;" parent="vfxE1XWkJNAnzS6LpCng-14" vertex="1">
          <mxGeometry y="160" width="200" height="8" as="geometry" />
        </mxCell>
        <mxCell id="vfxE1XWkJNAnzS6LpCng-17" value="+ setID(Integer): void&#xa;+ getID(): Integer&#xa;+ setUsername(String): void&#xa;+ getUsername(): String&#xa;+ setSchool(String): void&#xa;+ getSchool(): String&#xa;+ setAccount(Account): void&#xa;+ getAccount(): Account&#xa;+ setHostRating(Float): void&#xa;+ getHostRating(): Float&#xa;+ setGuestRating(Float): void&#xa;+ getGuestRating(): Float&#xa;+ setReviews(Review): void&#xa;+ getReviews(): ArrayList&lt;Review&gt;" style="text;strokeColor=none;fillColor=none;align=left;verticalAlign=top;spacingLeft=4;spacingRight=4;overflow=hidden;rotatable=0;points=[[0,0.5],[1,0.5]];portConstraint=eastwest;" parent="vfxE1XWkJNAnzS6LpCng-14" vertex="1">
          <mxGeometry y="168" width="200" height="212" as="geometry" />
        </mxCell>
      </root>
    </mxGraphModel>
  </diagram>
</mxfile>
